ply
format ascii 1.0
comment VCGLIB generated
element vertex 12
property float x
property float y
property float z
property uchar red
property uchar green
property uchar blue
property uchar alpha
element face 14
property list uchar int vertex_indices
end_header
.2 .2 .2 229 229 229 255 
-.2 .2 .2 245 245 245 255 
.2 -.2 .2 247 247 247 255 
-.2 -.2 .2 255 255 255 255 
.2 .2 -.2 213 213 213 255 
-.2 .2 -.2 225 225 225 255 
.2 -.2 -.2 224 224 224 255 
-.2 -.2 -.2 226 226 226 255 
.3 .3 -.3 61 61 61 255 
.3 -.3 -.3 0 0 0 255 
-.3 -.3 -.3 58 58 58 255 
-.3 .3 -.3 114 114 114 255 
3 0 1 2 
3 3 2 1 
3 0 2 4 
3 6 4 2 
3 0 4 1 
3 5 1 4 
3 7 5 6 
3 4 6 5 
3 7 6 3 
3 2 3 6 
3 7 3 5 
3 1 5 3 
3 8 10 9 
3 8 11 10 
