ply
format ascii 1.0
comment VCGLIB generated
element vertex 48
property float x
property float y
property float z
element face 24
property list uchar int vertex_indices
property uchar red
property uchar green
property uchar blue
end_header
63.2034 80.1495 0 
-63.1745 -56.8584 0 
-63.1745 80.1495 0 
63.2034 -56.8584 0 
63.2034 80.1495 0 
63.2034 -56.8584 8.66142 
63.2034 -56.8584 0 
63.2034 80.1495 8.66142 
63.2034 -56.8584 8.66142 
-63.1745 -56.8584 0 
63.2034 -56.8584 0 
-63.1745 -56.8584 8.66142 
-63.1745 80.1495 8.66142 
-63.1745 -56.8584 0 
-63.1745 -56.8584 8.66142 
-63.1745 80.1495 0 
-63.1745 80.1495 8.66142 
63.2034 80.1495 0 
-63.1745 80.1495 0 
63.2034 80.1495 8.66142 
63.2034 -56.8584 8.66142 
-63.1745 80.1495 8.66142 
-63.1745 -56.8584 8.66142 
63.2034 80.1495 8.66142 
5.85998 14.5748 22.1212 
-21.6991 -37 22.1212 
-21.6991 14.5748 22.1212 
5.85998 -37 22.1212 
-21.6991 14.5748 48.8928 
5.85998 14.5748 22.1212 
-21.6991 14.5748 22.1212 
5.85998 14.5748 48.8928 
5.85998 14.5748 22.1212 
5.85998 -37 48.8928 
5.85998 -37 22.1212 
5.85998 14.5748 48.8928 
5.85998 -37 48.8928 
-21.6991 -37 22.1212 
5.85998 -37 22.1212 
-21.6991 -37 48.8928 
-21.6991 14.5748 48.8928 
-21.6991 -37 22.1212 
-21.6991 -37 48.8928 
-21.6991 14.5748 22.1212 
5.85998 -37 48.8928 
-21.6991 14.5748 48.8928 
-21.6991 -37 48.8928 
5.85998 14.5748 48.8928 
3 0 1 2  255 200 0
3 1 0 3  255 200 0
3 4 5 6  255 200 0
3 5 4 7  255 200 0
3 8 9 10  255 200 0
3 9 8 11  255 200 0
3 12 13 14  255 200 0
3 13 12 15  255 200 0
3 16 17 18  255 200 0
3 17 16 19  255 200 0
3 20 21 22  255 200 0
3 21 20 23  255 200 0
3 24 25 26  255 200 0
3 25 24 27  255 200 0
3 28 29 30  255 200 0
3 29 28 31  255 200 0
3 32 33 34  255 200 0
3 33 32 35  255 200 0
3 36 37 38  255 200 0
3 37 36 39  255 200 0
3 40 41 42  255 200 0
3 41 40 43  255 200 0
3 44 45 46  255 200 0
3 45 44 47  255 200 0
